<svg xmlns="http://www.w3.org/2000/svg" width="406" height="137" viewBox="0 0 406 137">
    <g fill="#A61615" fill-rule="evenodd">
        <path d="M180.79 99.536h.04l.247.04.165-.04c.301 0 .452.588.452 1.767.11.178.164.316.164.412v.204l-.124.248.042.287-.123.452.081.782-.04.369.123.288-.083.369.042.37-.082.204.04.37v.042c0 .157-.095.378-.287.658.192.329.287.548.287.657 0 .146-.068.295-.205.45l.165.537-.288.286v.042c.111.179.165.316.165.41v.29l-.042.368c.054.158.124.652.205 1.48l-.08.37v.327c-.137.126-.207.248-.207.37v.042c0 .145.11.27.33.37l.081.287-.082.206c.35.274.596.41.74.41 0-.178.123-.286.37-.327.19 0 .328.123.412.37l.04.04h.041l.698-.37c.186.035.42.217.698.535h.042v.04l.103.207v.205l-.103.247c0 .165-.247.369-.74.617l-.123.039a1.168 1.168 0 0 1-.452-.328l-.123-.041c-.207.138-.357.207-.453.207h-.08l-.453-.29c-.083 0-.22.11-.412.329l-.534.166c-.074 0-.199-.124-.37-.371l-.287.205c-.603 0-.905-.026-.905-.08-.082.012-.178.08-.288.203l-.163.043-.494-.205h-.164c-.082 0-.205.055-.37.162l-.493-.04c-.097 0-.288.109-.575.33a5.742 5.742 0 0 0-1.398-.247l-.492-.371-.082-.287.122-.411-.04-.33.616-.617h.164c.158.139.294.207.412.207h.164a.47.47 0 0 0 .286-.123h.083l.165.123c.054 0 .108-.082.165-.247h.122l.247.124.247-.166c.294 0 .526.096.697.289.44-.101.66-.28.66-.534-.11-.056-.165-.137-.165-.246l.492-.535v-.081h.041l-.04-.042v-.576c-.138-.176-.207-.315-.207-.411l.206-.451-.08-.494.08-.371-.163-.574v-.328l.04-.412a4.034 4.034 0 0 1-.083-.902v-.083c0-.096.055-.205.165-.33v-.082l-.247-1.357.082-.327c0-.097-.054-.206-.163-.33v-.082l.123-.492v-.165c-.11-.111-.178-.315-.206-.618l-.206-.04c-.054.104-.232.228-.534.37v.084l.083.12-.123.043-.248-.083c-.41.356-.725.536-.945.536-.062 0-.279.19-.657.574 0 .063-.19.132-.576.206-.383-.027-.575-.22-.575-.576l-.122-.82c0-.358.191-.686.574-.988.438-.157.658-.305.658-.452 0-.138.15-.26.452-.37 0-.273.206-.411.616-.411.55-.576.85-.863.905-.863l.041.042h.041l.822-.658c.083 0 .274-.081.575-.246h.328c.12-.138.226-.206.33-.206M193.036 102.289l-.945-.083a.775.775 0 0 0-.247.494c-.494.123-.74.275-.74.45v.043l.082.207c-.13.075-.267.266-.41.575-.111 0-.178.054-.206.164l.04.245-.163.494c.04.147.177.268.41.369v.166c0 .055-.108.095-.33.124v.08l.043.165-.082.45c.11.217.177.546.206.989.116.22.308.329.574.329.357 0 .535.108.535.327.28.222.473.33.575.33.144 0 .282.069.41.207h.082l.042-.042.494.122.492-.08.329.08c.11-.136.275-.205.494-.205v-.041l.205.04h.124c.089 0 .267-.107.533-.327.329 0 .685-.151 1.07-.453.116 0 .225-.055.328-.163.246 0 .37-.192.37-.577.329-.206.492-.41.492-.615l.125-1.03-.083-.327.164-.288v-.124h-.122l-.288.043-.288-1.112c0-.164-.151-.246-.452-.246-.11-.116-.206-.318-.288-.614-.467-.056-.7-.166-.7-.331l-.204.124-.288-.042-.575.042-.577-.33-.244-.04h-.084c-.191 0-.493.137-.903.41m1.11-2.3l.329.082h.656l.412.125.04-.043h.042c.335.138.843.26 1.52.369.206.093.342.214.41.37.015.09.22.199.617.329.036.107.186.27.452.495.548.68.823 1.09.823 1.23l-.082.124v.042l.204.616-.041.04v.042c.11.212.164.377.164.495v.123l-.04.163c.082.187.137.529.164 1.028l-.163.41v.042l.123.163v.125c0 .054-.042.082-.123.082l-.042.04v.082c.165.166.246.344.246.534v.083l-.288.287.123.782-.123.246.084.288c0 .26-.084.508-.247.74l.163.412-.163.327v.085l.082.326-.288.699a.72.72 0 0 1-.247.575c0 .324-.178.57-.533.74l-.164.41.04.207c-.055.309-.151.528-.288.657-.068 0-.506.273-1.315.822h-.123l-.123-.042c-.103.024-.321.229-.66.619-.155.08-.47.135-.943.163l-.164.08-.617-.121c-.308.192-.527.288-.657.288h-.082l-.535-.166-.37.084h-.041l-.616-.248-.37.205h-.124c-.341-.326-.644-.491-.903-.491-.11-.116-.164-.226-.164-.33v-.041c0-.233.232-.453.698-.658a.427.427 0 0 1 .206-.246h.328l.452.082.575-.163.288.122.288-.041.205.124h.042c.444-.115.8-.24 1.067-.37.028-.083.11-.124.248-.124l.575.125c.089-.18.268-.302.534-.372.109-.115.41-.32.904-.617l.37-.37c0-.053.137-.191.41-.41v-.163l-.04-.041.288-.454.04-.204-.04-.452c.082-.194.19-.33.329-.411l-.041-.042v-.163c.163-.186.245-.334.245-.452l-.123-.206-.122.042-.372-.042h-.04c-.521.117-.78.268-.78.45-.111.084-.261.124-.452.124-.2.137-.364.206-.495.206h-.081l-.33-.08h-.081c-.116 0-.323.08-.616.245h-.041l-.412-.124-.37.083-.78-.041-.451.163-.495-.246-.657.124c-.075 0-.281-.193-.617-.577-.295 0-.472-.11-.533-.327-.158 0-.432-.26-.823-.782-.177 0-.424-.246-.74-.74h-.081l.082-.123v-.081l-.165-.657v-.165l.043-.451-.207-.29v-.122c.11 0 .164-.041.164-.123v-.124c0-.074-.068-.117-.205-.125v-.12l.205-.453v-.042c0-.073-.096-.238-.287-.494l.164-.41-.041-.823.534-.492-.041-.204c0-.075.096-.198.288-.37a.905.905 0 0 1 .328-.495c0-.136.11-.204.33-.204.437-.438.726-.66.862-.66.329 0 .493-.066.493-.205.226-.197.446-.306.658-.326l.412.08c.225-.19.843-.287 1.849-.287M208.27 107.56l-.37-.042c-.088 0-.197.123-.326.37h-.247c-.118-.11-.227-.164-.331-.164-.217.164-.37.245-.453.245 0 .105-.164.19-.491.25 0 .216-.068.382-.207.491l-.286.617a1.537 1.537 0 0 1-.452.658l.206.451.162.411v.248a.465.465 0 0 0-.121.286v.082l.286.453c.109 0 .164.07.164.205a.628.628 0 0 1-.164.411c.638.576.995.863 1.068.863h.04l.292-.084h.12l.414.454h.04l.45-.122.125.042.288-.042c.062 0 .184.11.369.327l.123-.04.492.081.37-.04.125.04.534-.205.369.042c.263 0 .453-.139.575-.413.13-.117.296-.198.494-.246l.04.042h.124c.303-.282.454-.499.454-.658l-.084-.246c0-.103.125-.213.37-.33 0-.273.096-.41.288-.41l.04-.206-.411-.615v-.206c0-.097.152-.164.455-.206v-.083c-.077-.184-.172-.307-.288-.369l.08-.494c-.28-.206-.457-.436-.534-.698-.102-.218-.266-.329-.494-.329-.19-.075-.285-.157-.285-.246l.039-.166c0-.137-.164-.203-.491-.203a4.664 4.664 0 0 1-1.07-.413l-.163.083-.537-.124c-.424.056-.82.14-1.191.248m1.89-7.52l.37.206h.208a.464.464 0 0 1 .286-.125l.659.206.204-.04h.124l.247.04.04-.04h.04c.494.17.74.363.74.574l.083.411c0 .13-.178.282-.534.452-.11.22-.328.327-.66.327h-.04l-.205-.204h-.04c-.248.3-.44.453-.576.453-.403-.329-.65-.493-.74-.493a.808.808 0 0 1-.41.124h-.33l-.124.081-.162-.08-.371.325-.533.043-.371-.082h-.04c-.091.301-.172.451-.248.451h-.203l-.372-.042c-.226.131-.47.406-.741.824 0 .217-.121.342-.37.37-.163.225-.246.416-.246.575-.068 0-.121.19-.164.575l.082.368-.204 1.028-.084.083.043.123c.095 0 .302-.136.615-.41l.659.082c.124-.3.424-.453.903-.453h.082l.288.041c.246-.06.37-.113.37-.164l-.041-.04v-.042c0-.145.068-.25.205-.329h.166c.06 0 .116.095.164.287l.328.163c.186-.134.349-.204.492-.204.09 0 .294.097.618.288h.04c.083 0 .165-.055.247-.164l.164-.04.616.41.372-.082c.547.177.82.37.82.575h.082l.166-.124h.082c0 .102.288.31.864.618.108.575.286.863.533.863.083 0 .178.205.287.615.247.152.37.522.37 1.11.11.144.164.266.164.37-.09.116-.17.335-.246.657l.124.371c-.063.246-.13.37-.206.37l.123.33c0 .266-.123.486-.37.656l.04.368c0 .201-.165.405-.492.616v.042c0 .332-.098.495-.287.495l-.781.78h-.288c-.124 0-.3.082-.533.245 0 .057-.07.084-.21.084h-.161l-.165-.042c-.074 0-.158.124-.246.37h-.042l-.203-.204-.493.328c-.276 0-.7.081-1.277.246h-.08c-.103 0-.227-.055-.371-.165h-.245c-.146.14-.267.206-.371.206h-.083c-.636-.054-1.13-.15-1.478-.287-.111 0-.29-.082-.534-.245a4.226 4.226 0 0 1-1.397-1.028l-.33-.125c0-.08-.122-.246-.37-.493 0-.15-.07-.273-.204-.37v-.04l.04-.369-.081-.37.04-.33c0-.097-.151-.193-.453-.288l-.04-.206v-.082l.04-.409c-.082-.02-.124-.13-.124-.33v-.164l.042-.7c-.164-.068-.247-.177-.247-.327l.124-.37-.082-.247.163-.41c-.135-.22-.205-.412-.205-.576v-.042l.083-.576h-.041c0-.103.082-.21.247-.327-.09-.096-.157-.383-.206-.863.164-.102.246-.335.246-.699.275-.343.413-.644.413-.904 0-.123.08-.399.246-.822 0-.426.083-.685.247-.78.053-.009.19-.202.409-.578a.818.818 0 0 0 .495-.408c.505-.508.904-.797 1.189-.865l.29.043c.17-.44.445-.657.82-.657.652-.166 1.063-.249 1.235-.249l.533.083c.287-.165.535-.247.74-.247M223.784 101.582l-.33-.124h-.082l-.413.124h-.82c-.117.164-.309.246-.576.246-.19.144-.3.294-.329.45-.054 0-.109.082-.164.247a.656.656 0 0 1-.41.248l.04.288-.289.86v.043l.207.165c0 .39.15.663.452.823 0 .328.151.49.452.49l.123.042.041.043c.118 0 .253.12.411.367h.083l.204-.12c.466.12.7.229.7.327 0 .056.068.084.204.084h.041l.783-.207c.012.054.08.109.204.164l.453-.206.535.289h.041l.204-.083.164.043.412-.043.124.043c.096-.302.26-.454.493-.454.22 0 .327-.122.327-.368.295-.16.583-.61.865-1.358-.124-.061-.233-.28-.33-.658l.122-.451c-.176-.562-.369-.904-.574-1.028-.232 0-.396-.083-.494-.246l-.245-.248-.248.084-.368.082-.617-.25-.165.045-.04-.044v.044l-.33-.082-.04.038v-.038c-.117 0-.35.11-.699.329h-.123zm.492 6a.577.577 0 0 1-.535.306 1.28 1.28 0 0 1-.574-.268h-.042c-.274.078-.41.213-.41.412l-.082.083-.452-.083c-.398.207-.658.37-.782.492h-.041l-.205-.038c0 .046-.125.155-.37.33l-.041.12.042.043v.04c-.117.453-.281.755-.493.902l-.165.33c0 .494.218 1.002.658 1.523.067.3.123.45.164.45.178 0 .41.192.698.575h.082c.247 0 .439-.055.576-.163h.122l.247.289.125.08h.04c.116 0 .254-.096.41-.288h.04c.173 0 .284.137.33.41.11.057.262.082.453.082l.452-.082.534.208c.13-.301.296-.453.493-.453l.576.412c.054 0 .165-.11.329-.332l.04-.037h.042l.493.08h.04v-.328c0-.07.125-.137.37-.207 0-.21.15-.458.453-.74 0-.17.137-.5.41-.985v-.04l-.04-.165h-.042l-.286.04-.042-.04v-.042l.08-.247v-.04c0-.273-.026-.411-.08-.411l.042-.043v-.163l-.25-.163c0-.255-.134-.488-.408-.7v-.122l.039-.167-.04-.12-.41.039c-.192 0-.303-.15-.33-.45l-.33-.208-.573.208c-.166-.03-.383-.126-.658-.291h-.205l-.125.083h-.081a.461.461 0 0 0-.288-.121zm-.492-8.098h.205c.199.137.432.207.699.207h.328l.37.12.37-.12c.335 0 .623.15.862.45l.166.045.286-.083c.5.225.968.485 1.4.778 0 .055.259.302.778.74.056.28.194.583.41.904l.044.33-.043.492.084.125-.33.286.206.247c0 .377-.151.802-.451 1.275l.039.163c-.061 0-.196.123-.41.369-.082.008-.165.145-.245.413a1.085 1.085 0 0 0-.331.49h-.083v.044l-.04-.043c-.275.024-.412.063-.412.127v.08l.125.04.04-.04c.247 0 .467.178.658.534.437.24.659.486.659.739.274.165.409.385.409.657v.248c.275.295.41.472.41.535-.053.048-.121.445-.203 1.19l.12.329-.038.043.038.286v.125c0 .15-.094.34-.286.575l-.45.987c-.345.302-.606.449-.782.449-.33 0-.494.125-.494.373l-.247.08-.164-.042c-.24.227-.608.418-1.11.577h-.08l-.248-.205-.576.494-.204.039-.493-.287-.536.248-.493-.082-.245.082h-.084l-.327-.082-.165.082c-.362 0-.705-.082-1.03-.248-.263 0-.524-.108-.778-.327-.301 0-.452-.056-.452-.164l.04-.207-.04-.123-.575.165h-.042c-.056 0-.083-.11-.083-.33-.547-.473-.821-.817-.821-1.027-.281-.303-.46-.604-.534-.906v-.081l.04-.165c-.217-.26-.328-.437-.328-.532.008-.33.035-.494.083-.494l-.165-.328c0-.064.095-.187.288-.373-.034-.247-.075-.368-.123-.368.15-.432.328-.706.534-.821 0-.132.163-.35.493-.657l.533-.617v-.288c-.341-.821-.602-1.232-.78-1.232l-.083-.126.083-.121-.493-.657-.205-.455v-.038l.082-1.113v-.12c0-.104.055-.227.164-.371v-.45c.118-.188.294-.38.535-.577 0-.226.15-.391.454-.493 0-.2.258-.474.779-.823.129 0 .499-.191 1.109-.576h.658l.697-.163.37.082.454-.29zM405.355 30.207L202.675 7.5.002 30.207 202.676 0z"/>
        <path d="M0 106.165l202.678 22.705 202.676-22.705-202.676 30.206z"/>
        <g>
            <path d="M73.51 35.832c.362-.688.726-1.376 1.088-2.06H64.92l1.084 2.076c-.018 19.078-.033 38.16-.049 57.238-.362.72-.724 1.438-1.085 2.161 3.222-.248 6.447-.487 9.67-.719-.363-.66-.723-1.323-1.086-1.984.02-18.903.038-37.809.057-56.712M236.044 39.83c1.958.003 3.913.01 5.87.013.727.321 1.45.644 2.174.965l-.012-5.147v-1.863H220.5v1.851c-.002 1.703-.003 3.407-.006 5.11l2.173-.95 5.867.007c.01 16.137.017 32.271.025 48.41l-1.086 1.891c3.23.045 6.461.098 9.69.16-.363-.644-.725-1.29-1.09-1.936l-.03-48.51M59.46 35.869c.365-.7.729-1.4 1.089-2.098h-9.677c.36.707.722 1.412 1.082 2.117-.004 8.547-.01 17.099-.013 25.647-3.174.12-6.348.242-9.52.37 0-8.663.004-17.325.006-25.987l1.089-2.147h-9.68c.36.726.724 1.446 1.085 2.169l-.002 59.7c-.361.754-.722 1.51-1.082 2.268 3.219-.306 6.439-.6 9.658-.886-.362-.682-.722-1.366-1.083-2.05l.007-25.652c3.17-.161 6.344-.316 9.518-.466l-.014 25.324c-.36.734-.723 1.467-1.085 2.206 3.222-.275 6.444-.541 9.666-.797-.361-.668-.724-1.338-1.084-2.01l.04-57.708M309.868 35.78c.36-.668.724-1.337 1.082-2.009h-10.568a3205.507 3205.507 0 0 1-6.11 13.402 3609.241 3609.241 0 0 0-6.14-13.402h-10.569c.362.651.726 1.303 1.087 1.954l.064 53.878c-.362.637-.725 1.273-1.084 1.907 3.227.136 6.456.281 9.682.435l-1.09-2.023c-.016-14.986-.034-29.973-.054-44.959a3634.471 3634.471 0 0 1 8.125 17.752 3469.652 3469.652 0 0 0 8.079-17.5c.018 15.17.038 30.338.058 45.51-.365.645-.726 1.291-1.084 1.936 3.224.18 6.45.364 9.675.56l-1.088-2.074c-.02-18.455-.043-36.91-.065-55.367M151.85 80.378c-.002 2.1-1.926 3.853-4.296 3.919-2.372.066-4.293-1.59-4.29-3.702.011-12.167.024-24.333.036-36.5.003-2.112 1.927-3.831 4.294-3.84 2.37-.004 4.29 1.69 4.29 3.792-.013 12.11-.023 24.222-.035 36.33m1.503-46.615h-11.504a2691.379 2691.379 0 0 0-6.15 5.502c-.017 15.48-.032 30.954-.05 46.43a2928.04 2928.04 0 0 0 6.142 5.286c3.837-.131 7.675-.248 11.512-.355 2.052-1.873 4.104-3.734 6.156-5.59l.037-45.841a3027.092 3027.092 0 0 1-6.143-5.432M332.51 33.762c.363.846.726 1.693 1.086 2.541.018 15.804.03 31.604.048 47.408h-.002c.003 2.252-1.916 3.951-4.282 3.801-2.369-.149-4.29-2.071-4.294-4.297l-.05-46.932c.362-.838.723-1.681 1.083-2.521h-9.678c.365.831.726 1.663 1.088 2.496.02 17.21.041 34.423.06 51.637 2.047 2.03 4.098 4.076 6.147 6.137 3.767.255 7.531.524 11.297.8a1351.24 1351.24 0 0 0 6.136-5.43l-.044-53.07c.36-.856.723-1.713 1.085-2.57h-9.68zM95.815 60.298c-.002 1.753-1.542 3.224-3.44 3.285-1.524.046-3.05.093-4.578.143.01-7.793.019-15.583.027-23.378 1.527-.008 3.054-.02 4.58-.03 1.897-.01 3.433 1.403 3.43 3.159-.005 5.605-.013 11.214-.02 16.82m1.689-26.535l-18.846.009c.36.682.723 1.363 1.083 2.043l-.06 56.312c-.362.703-.723 1.41-1.086 2.116 3.224-.225 6.449-.438 9.674-.643-.363-.655-.724-1.306-1.084-1.961.007-6.98.016-13.957.024-20.935 3.416-.135 6.833-.266 10.249-.391a1500.62 1500.62 0 0 1 6.154-5.86l.03-25.046a1431.151 1431.151 0 0 1-6.138-5.644M123.83 59.648c-.003 1.711-1.542 3.134-3.44 3.18-1.526.033-3.054.07-4.58.107l.028-22.759 4.58-.023c1.898-.01 3.432 1.371 3.43 3.083-.005 5.471-.012 10.943-.018 16.412m1.686-25.886c-6.282.003-12.563.005-18.845.01l1.082 1.982-.067 54.723-1.088 2.044c3.228-.174 6.455-.338 9.68-.492-.36-.642-.72-1.283-1.085-1.924.011-6.795.018-13.588.026-20.38 3.418-.105 6.837-.2 10.255-.29 2.052-1.903 4.102-3.793 6.154-5.678.01-8.159.018-16.318.027-24.478-2.046-1.832-4.093-3.67-6.139-5.517M209.059 79.797c0 2.077-1.923 3.75-4.292 3.747-2.374 0-4.297-1.68-4.295-3.754V43.916c0-2.073 1.92-3.757 4.292-3.754 2.369 0 4.289 1.681 4.292 3.756l.003 35.88m1.455-46.037H199.01c-2.05 1.794-4.098 3.59-6.144 5.385l-.01 45.442c2.05 1.785 4.099 3.572 6.15 5.362 3.838-.007 7.677-.005 11.517.011 2.049-1.784 4.1-3.569 6.149-5.348l-.01-45.464c-2.05-1.797-4.1-3.594-6.15-5.388M181.012 58.93c0 1.666-1.538 3.026-3.439 3.04-1.528.01-3.054.02-4.582.035l.013-22.033c1.526-.004 3.054-.006 4.58-.007 1.898-.005 3.435 1.344 3.435 3.01-.004 5.317-.007 10.637-.007 15.954m1.667-25.168c-6.282.003-12.564.005-18.846.01.363.638.721 1.277 1.084 1.912l-.038 52.748-1.087 1.937c3.23-.07 6.458-.131 9.689-.184l-1.088-1.896c.005-6.573.007-13.147.012-19.722 3.42-.036 6.84-.066 10.26-.09 2.05-1.812 4.1-3.617 6.151-5.421.002-7.968.005-15.937.005-23.906-2.047-1.794-4.095-3.588-6.142-5.387M255.094 62.215l.022-18.16c-.002-2.1 1.919-3.8 4.287-3.793 2.371.01 4.293 1.729 4.296 3.844.022 6.082.04 12.164.059 18.247-2.887-.05-5.776-.094-8.664-.138m7.664 28.736c3.229.112 6.459.226 9.686.35l-1.088-1.985c-.017-16.682-.036-33.363-.055-50.044-2.051-1.844-4.102-3.68-6.151-5.51h-11.504c-2.048 1.817-4.095 3.63-6.141 5.436.013 16.465.028 32.928.042 49.39-.363.632-.724 1.26-1.085 1.894 3.229.077 6.458.166 9.687.26l-1.09-1.961c.01-6.632.017-13.267.026-19.9 2.899.05 5.796.108 8.695.168l.065 20.003c-.362.633-.724 1.267-1.087 1.899M355.181 55.625l.045-10.533c-.004-2.312 1.917-4.171 4.286-4.147 2.37.019 4.289 1.937 4.289 4.284.005 1.956.008 3.912.014 5.869l5.425.136c.721.379 1.444.757 2.169 1.139V39.907a1047.18 1047.18 0 0 0-6.146-6.145h-11.505c-2.051 1.999-4.096 3.98-6.142 5.945.003 6.352.006 12.704.011 19.055a973.137 973.137 0 0 1 16.342 16.73l-.045 10.238c0 2.347-1.916 4.093-4.282 3.904-2.365-.186-4.284-2.207-4.286-4.518l-.012-5.803c-1.808-.112-3.614-.22-5.423-.33a454.17 454.17 0 0 0-2.169-1.176c.004 4.02.006 8.04.009 12.062a912.96 912.96 0 0 1 6.142 6.455c3.827.323 7.657.659 11.484 1.008 2.043-1.845 4.086-3.702 6.13-5.576V72.48a945.251 945.251 0 0 0-16.336-16.856"/>
        </g>
    </g>
</svg>
